<svg xmlns="http://www.w3.org/2000/svg" viewBox="0 0 64 64" width="64" height="64" role="img" aria-label="웹소설 에이전트">
  <defs>
    <linearGradient id="g" x1="0" y1="0" x2="1" y2="1">
      <stop offset="0" stop-color="#0e8c71"/>
      <stop offset="1" stop-color="#0a6b56"/>
    </linearGradient>
  </defs>
  <rect width="64" height="64" rx="14" fill="url(#g)"/>
  <!-- 펼친 책(연재 원고) -->
  <path d="M12 19c6-3 12-3 18 1v27c-6-4-12-4-18-1z" fill="#ffffff" opacity="0.96"/>
  <path d="M52 19c-6-3-12-3-18 1v27c6-4 12-4 18-1z" fill="#ffffff" opacity="0.82"/>
  <path d="M32 21v26" stroke="#0a6b56" stroke-width="2" stroke-linecap="round"/>
  <!-- 텍스트 라인 -->
  <g stroke="#0a6b56" stroke-width="2" stroke-linecap="round" opacity="0.55">
    <path d="M16 25h11M16 30h11M16 35h9"/>
    <path d="M37 25h11M37 30h11M37 35h9"/>
  </g>
  <!-- AI 스파크 -->
  <path d="M46 13l1.6 4.4L52 19l-4.4 1.6L46 25l-1.6-4.4L40 19l4.4-1.6z" fill="#ffce5a"/>
</svg>
